<?xml version="1.0" encoding="UTF-8"?>
<!DOCTYPE svg PUBLIC "-//W3C//DTD SVG 1.1//EN" "http://www.w3.org/Graphics/SVG/1.1/DTD/svg11.dtd">
<svg xmlns="http://www.w3.org/2000/svg" xmlns:xlink="http://www.w3.org/1999/xlink" version="1.1" width="200px" height="122px" viewBox="-0.5 -0.5 200 122"><defs/><g><g><path d="M 41 60 L 62.63 60" fill="none" stroke="rgb(0, 0, 0)" stroke-miterlimit="10" pointer-events="stroke"/><path d="M 67.88 60 L 60.88 63.5 L 62.63 60 L 60.88 56.5 Z" fill="rgb(0, 0, 0)" stroke="rgb(0, 0, 0)" stroke-miterlimit="10" pointer-events="all"/></g><g><ellipse cx="21" cy="60" rx="20" ry="20" fill="rgb(255, 255, 255)" stroke="rgb(0, 0, 0)" stroke-width="2" pointer-events="all"/></g><g><path d="M 76.5 52.5 Q 76.52 0 108.76 0 Q 141 0 141 33.63" fill="none" stroke="rgb(0, 0, 0)" stroke-miterlimit="10" pointer-events="stroke"/><path d="M 141 38.88 L 137.5 31.88 L 141 33.63 L 144.5 31.88 Z" fill="rgb(0, 0, 0)" stroke="rgb(0, 0, 0)" stroke-miterlimit="10" pointer-events="all"/></g><g><path d="M 76.5 67.5 Q 76.52 120 108.76 120 Q 141 120 141 86.37" fill="none" stroke="rgb(0, 0, 0)" stroke-miterlimit="10" pointer-events="stroke"/><path d="M 141 81.12 L 144.5 88.12 L 141 86.37 L 137.5 88.12 Z" fill="rgb(0, 0, 0)" stroke="rgb(0, 0, 0)" stroke-miterlimit="10" pointer-events="all"/></g><g><ellipse cx="76.5" cy="60" rx="7.5" ry="7.5" fill="#d80073" stroke="#a50040" stroke-width="2" pointer-events="all"/></g><g><path d="M 161 60 L 184.63 60" fill="none" stroke="rgb(0, 0, 0)" stroke-miterlimit="10" pointer-events="stroke"/><path d="M 189.88 60 L 182.88 63.5 L 184.63 60 L 182.88 56.5 Z" fill="rgb(0, 0, 0)" stroke="rgb(0, 0, 0)" stroke-miterlimit="10" pointer-events="all"/></g><g><ellipse cx="141" cy="60" rx="20" ry="20" fill="rgb(255, 255, 255)" stroke="rgb(0, 0, 0)" stroke-width="2" pointer-events="all"/></g></g></svg>