<?xml version="1.0" encoding="UTF-8"?>
<!DOCTYPE svg PUBLIC "-//W3C//DTD SVG 1.1//EN" "http://www.w3.org/Graphics/SVG/1.1/DTD/svg11.dtd">
<svg xmlns="http://www.w3.org/2000/svg" xmlns:xlink="http://www.w3.org/1999/xlink" version="1.1" width="163px" height="62px" viewBox="-0.5 -0.5 163 62"><defs/><g><g><path d="M 41 21 L 67.63 21" fill="none" stroke="rgb(0, 0, 0)" stroke-miterlimit="10" pointer-events="stroke"/><path d="M 72.88 21 L 65.88 24.5 L 67.63 21 L 65.88 17.5 Z" fill="rgb(0, 0, 0)" stroke="rgb(0, 0, 0)" stroke-miterlimit="10" pointer-events="all"/></g><g><ellipse cx="21" cy="21" rx="20" ry="20" fill="rgb(255, 255, 255)" stroke="rgb(0, 0, 0)" stroke-width="2" pointer-events="all"/></g><g><path d="M 89 21 L 114.63 21" fill="none" stroke="rgb(0, 0, 0)" stroke-miterlimit="10" pointer-events="stroke"/><path d="M 119.88 21 L 112.88 24.5 L 114.63 21 L 112.88 17.5 Z" fill="rgb(0, 0, 0)" stroke="rgb(0, 0, 0)" stroke-miterlimit="10" pointer-events="all"/></g><g><ellipse cx="81.5" cy="21" rx="7.5" ry="7.5" fill="#d80073" stroke="#a50040" stroke-width="2" pointer-events="all"/></g><g><ellipse cx="141" cy="21" rx="20" ry="20" fill="rgb(255, 255, 255)" stroke="rgb(0, 0, 0)" stroke-width="2" pointer-events="all"/></g><g><path d="M 86.8 26.3 Q 86.81 31 93.9 31 Q 101 31 101 46 Q 101 61 91 61 Q 81 61 81 34.85" fill="none" stroke="rgb(0, 0, 0)" stroke-miterlimit="10" pointer-events="stroke"/><path d="M 81 29.6 L 84.5 36.6 L 81 34.85 L 77.5 36.6 Z" fill="rgb(0, 0, 0)" stroke="rgb(0, 0, 0)" stroke-miterlimit="10" pointer-events="all"/></g></g></svg>